<?xml version="1.0" encoding="utf-8"?>
<!-- Generator: Adobe Illustrator 21.0.2, SVG Export Plug-In . SVG Version: 6.00 Build 0)  -->
<svg version="1.1" id="Layer_1" xmlns="http://www.w3.org/2000/svg" xmlns:xlink="http://www.w3.org/1999/xlink" x="0px" y="0px"
	 viewBox="0 0 264.2 306" style="enable-background:new 0 0 264.2 306;" xml:space="preserve">
<style type="text/css">
	.st0{fill:none;stroke:#000000;stroke-width:2;stroke-linecap:round;stroke-linejoin:round;stroke-miterlimit:10;}
</style>
<g>
	<path d="M169.2,199.5c0.8,7.1,1.5,13.1,2.1,19c0.3,3.1,1.6,5.1,4.9,5.9c2.3,0.6,4.8,1.9,6.5,3.5c1.4,1.5,2.6,4,2.5,6
		c-0.1,2.6-2.8,3.8-5.2,3.8c-4.6-0.1-9.3-0.4-13.9-1c-1.4-0.2-2.9-1.7-3.7-3c-1.4-2.2-2.6-4.7-3.2-7.3c-3.6-15.4-7.1-30.8-10.5-46.2
		c-0.5-2.3-0.6-4.6-0.6-7c0.1-3-1.3-3.9-3.9-3.5c-1,0.1-2,0.1-3,0.3c-3.4,0.8-4.2,2.5-2.9,5.8c2.5,6.3,4,12.7,3.2,19.5
		c-1,7.7-4.9,13.7-11.4,18c-1.4,0.9-3.1,1.5-4.3,2.5c-1.4,1.2-2.4,2.8-3.6,4.3c1.7,0.2,3.3,0.6,5,0.7c4.5,0.1,8.9,0.1,13.4,0.3
		c1.1,0,2.3,0.5,3.3,1c2.2,1.1,4.9,2.2,4.6,5.2c-0.3,3-2.3,5.4-5.2,6.1c-2.7,0.6-5.6,0.6-8.3,0.5c-2.1-0.1-4.3-0.7-6.4-1.1
		c-2-0.3-3.4,0.1-4.5,2.1c-2.9,5.4-7.7,6.1-13.3,5.6c-4.3-0.4-8.6-0.4-12.8-0.3c-4.2,0-8.3,0.4-12.5,0.5c-1.6,0-3.6,0-4.8-0.9
		c-6.2-4.7-12.8-2.4-19.1-1.3c-8.2,1.3-16.4,3.6-24.7,1.2c-3.8-1.1-7.4-3-10.8-5c-2.6-1.5-3.2-4.3-1.6-7c1.9-3.2,4.1-5.9,8.5-6.1
		c5.5-0.3,10.9-1.1,16.4-1.6c2.6-0.2,3.7-1,3.2-4.1c-6.3-39.2,3.9-73.9,29.4-104.2c2.4-2.9,5.4-5.5,8.4-7.7
		c11.7-8.5,24.6-14.5,38.3-19.2c3.4-1.2,6.9-2.5,10-4.3c6-3.4,12.2-6,19.1-6.8c1.3-0.1,2.7-0.4,3.9-0.8c11.9-4.2,24.3-5.3,36.7-6.8
		c2-0.2,4.1-0.4,6,0c10.6,2.3,20.9-0.2,31.1-2.4c2-0.4,3.9-1.3,5.5,0.5c1.8,2,0.9,4.1-0.1,6c-1.7,3.4-3.6,6.8-5.3,10.2
		c-2.1,4-1,6.4,3.3,7.3c2.1,0.4,4.3,0.6,6.4,1c0.9,0.2,1.7,0.5,2.5,0.8c-0.8,0.5-1.5,1.3-2.4,1.5c-5.9,1.7-8.6,4.9-7.7,11.5
		c0.6,4.4-1.8,8.2-4.6,11.8c-1.8,2.2-2.3,5.4-3.5,8c-1,2.2-1.9,4.7-3.7,6.2c-1.4,1.2-3.9,1.2-5.9,1.6c-0.6,0.1-1.4-0.7-1.9-0.6
		c-5.6,2-8.5-2.2-12-5c-2.9-2.2-5.8-4.5-8.8-6.5c-1.3-0.9-3-1.5-4.6-1.7c-2-0.3-3.3,0.6-2.7,2.9c1.7,6.5,1.5,12.8-1.4,19
		c-1.2,2.7,1.1,1.7,2.1,1.4c7.3-1.8,14.4-4.1,21.8-5.3c6-1,12.2-0.7,18.3-0.7c1.3,0,2.6,0.6,3.8,1.1c3.6,1.8,5.8,6,5,8.9
		c-1,3.4-6.1,6.4-9.9,6c-4.6-0.4-9.2-0.9-13.8-0.7c-4.7,0.2-8.9,2.4-12.9,4.8c-8.4,5.1-16.9,10-25.6,14.7c-2.9,1.6-4.6,3.5-5,6.8
		C171.4,184.1,170.2,192.3,169.2,199.5z"/>
	<path class="st0" d="M248.5,89.5c-3,0.5-6,1-9,1.5"/>
</g>
</svg>
